<?xml version="1.0" encoding="utf-8"?>
<!-- Generator: Adobe Illustrator 21.1.0, SVG Export Plug-In . SVG Version: 6.00 Build 0)  -->
<svg version="1.1" id="Capa_3_1_" xmlns="http://www.w3.org/2000/svg" xmlns:xlink="http://www.w3.org/1999/xlink" x="0px" y="0px"
	 viewBox="0 0 184 150" style="enable-background:new 0 0 184 150;" xml:space="preserve">
<style type="text/css">
	.st0{fill:#036644;}
	.st1{fill:#C22B29;}
</style>
<g id="w6rzxm_1_">
	<g>
		<path class="st0" d="M54.8,36.8c0.1-1.2-0.2-2.6,0.2-3.9c0.7-2.7,2.6-4.2,5.8-4.7c5.8-0.8,11.5-0.2,16.6,2.6
			c4,2.2,7.5,3.1,12.1,0.7c4.6-2.4,10.2-2.2,15.4-2.8c4.6-0.5,9.3-0.6,13.9-0.8c2.9-0.1,3.7,0.5,4.1,3.4c0.3,2.4,0.5,4.9,0.6,7.3
			c0.1,1.6-0.8,2.6-2.5,2.8c-1.8,0.2-3.7,0.2-5.5,0.8c-1,0.3-1.3,0.7-0.2,1.4c2.4,1.5,4.7,3.2,7.2,4.7c2.1,1.3,3.3,3.2,3.4,5.5
			c0.1,6.8,0.4,13.5-0.6,20.3c-0.6,4.2-2.5,7.8-5.5,10.8c-0.6,0.6-1.4,1.2-0.9,2c0.4,0.6,1.4,0.4,2.2,0.1c4-1.4,7.2,0.8,7.3,5
			c0.1,5-1.9,7.7-6.8,9.1c-4.2,1.2-8.4,1.2-12.5-0.4c-6.3-2.4-12.7-2.3-19.2-1.4c-7.8,1-15.5,1.8-23.3,2.7c-1,0.1-2,0-3-0.1
			c-4.3-0.4-6.6-3-6.3-7.1c0.3-4.2,3.3-7.1,7.4-6.9c0.3,0,0.7,0,1,0.1c0.8,0.1,1.8,0.2,2-0.8c0.2-0.9-0.4-1.6-1.4-1.8
			c-5.3-1.3-7.5-5.2-8-10.2c-0.5-5.5-1-11-0.6-16.5c0.4-4.6,1.5-8.9,5.9-11.5c0.6-0.3,1.6-0.8,1.3-1.5c-0.3-0.6-1.3-0.3-2-0.3
			c-0.9,0-1.9,0.2-2.8,0.2c-2.9,0-4.4-1.3-4.8-4.2C54.9,39.9,54.9,38.4,54.8,36.8z M117.4,61.5c-0.1-6.6-3.9-11.8-10.2-15.6
			c-1.4-0.8-3.1-1.2-4.8-0.9c-1.1,0.2-2.7,0.2-2.9,1.6c-0.2,1.4,1.2,1.8,2.3,2.4c6.5,3.5,9.6,9.2,9.9,16.4c0.3,6.6-1.9,12.2-7.7,16
			c-5.3,3.6-11.2,5.9-17.4,7.3c-5.1,1.2-10.3,1.9-15.1,4c-0.6,0.3-1.4,0.7-1.2,1.3c0.1,0.6,1,0.3,1.5,0.3c4.4-0.4,8.8-1.4,13.2-1.3
			c3.3,0.1,6.5-0.4,9.6-1.3c6.1-1.7,12-3.9,16.2-9C115.7,76.9,117,69.9,117.4,61.5z M77.2,83c0.5-0.2,1.4,0,1.7-0.6
			c0.2-0.5-0.5-1.1-0.9-1.4c-3-2.1-3.9-5.1-4-8.6c-0.3-6.9,0.3-13.5,5.1-18.9c5.7-6.3,12.4-11.4,20.7-13.9c3.7-1.1,7.3-2.3,11-3.5
			c0.7-0.2,1.3-0.4,1.4-1.2c0.1-0.8-0.4-1.3-1-1.8c-1.3-0.8-2.6-1.2-4.1-1c-5.3,0.6-10.2,2.3-15,4.4c-12,5-19.7,13.8-23.2,26.3
			c-0.7,2.4-1.6,4.9-1.1,7.4c0.5,2.8,1.5,5.6,2.7,8.3C71.8,81.3,74.1,82.7,77.2,83z M91.9,78c9.3,0,15-8.7,11.4-17.2
			c-1.7-4.1-5.2-6.2-9.4-6.1C89,54.7,84,55.2,81.3,60C77.6,66.7,80.9,78.2,91.9,78z M68.2,34c-1.1,0.2-2,0.3-2.8,0.4
			c-1.2,0.2-1.6,1.1-1.4,2.2c0.3,1.6,2.1,3.8,3.7,3.7c3.2-0.1,6.4-0.8,9.5-1.6c0.5-0.1,1-0.5,1-1.1c0-0.5-0.4-1-1-1.2
			C74.1,35.7,71,34.8,68.2,34z M116.5,95.9c1.4-0.3,2.8-0.5,4.3-0.8c0.6-0.1,0.8-0.6,1-1.1c0.1-0.6-0.4-0.8-0.8-1
			c-0.8-0.5-1.7-1.1-2.5-1.6c-3.5-2-4.9-1.9-8,0.8c-1.2,1-1.1,2,0.4,2.4C112.7,95.1,114.6,95.5,116.5,95.9z"/>
		<path class="st1" d="M81.9,112.8c0-2.5,0-5,0-7.6c0-1.2,0.5-1.7,1.8-1.9c2.8-0.2,4.9,0.5,6.2,3.2c0.8,1.8,2,3.4,3,5.1
			c0.3,0.4,0.6,1.1,1.1,0.9c0.6-0.2,0.4-0.9,0.4-1.4c0-1.9,0.1-3.8,0-5.8c-0.1-1.6,0.8-2,2.2-2c1.4,0,2.3,0.3,2.3,1.9
			c0,4.7,0,9.4-0.1,14.1c0,0.9,0.3,2.2-1.3,2.5c-1.6,0.3-3.1,0.4-4.2-1.3c-1.7-3-3.6-5.9-5.4-8.8c-0.3-0.4-0.8-1.2-1-1.1
			c-0.7,0.2-0.5,1-0.5,1.5c0,2.6-0.1,5.2,0,7.8c0.1,1.6-0.7,2.1-2.1,2.1c-1.4,0-2.4-0.2-2.3-2C82,117.6,81.9,115.2,81.9,112.8z"/>
		<path class="st1" d="M112.2,112.8c0-2.4,0-4.8,0-7.2c0-1.5,0.5-2.2,2.1-2.2c2.5,0.1,4.9,0,7.4,0.1c2.4,0.1,4.6,0.6,5.6,3.1
			c1,2.5,0.5,4.8-1.8,6.5c-1.6,1.1-0.7,2.4,0.1,3.2c1.3,1.2,2,2.8,3.3,4.1c0.9,0.9,0.5,1.5-0.7,1.7c-2.7,0.5-4.5-0.4-5.9-2.9
			c-0.9-1.6-1.9-3.2-4-3.6c-1.1-0.2-1.4,0.1-1.3,1.1c0.1,1,0.1,2,0.2,3c0.3,1.8-0.6,2.4-2.2,2.5c-1.6,0.1-2.7-0.3-2.7-2.3
			C112.2,117.5,112.2,115.1,112.2,112.8z M119,111.9c2.4,0,3.6-1,3.6-2.8c-0.1-1.6-1.4-2.4-3.9-2.4c-2.9,0.1-1.3,2.4-1.6,3.6
			C116.6,112,118,111.8,119,111.9z"/>
		<path class="st1" d="M64.1,103.4c1.2,0,2.4,0,3.6,0c0.8,0,1.5,0.1,1.5,1.1c0,0.9,0.3,2-1,2.2c-1.5,0.2-1.9,1.2-1.9,2.5
			c0,1.9,0,3.7-0.1,5.6c0,1.8-0.1,3.6,2.2,4.3c1,0.3,0.9,1.2,0.8,2c-0.1,0.9-0.8,1-1.5,1c-2.4,0-4.8,0-7.2,0c-1,0-1.7-0.4-2.1-1.3
			c-0.3-0.9-0.4-2,1.1-1.9c1.4,0,1.9-0.7,1.9-2c0-2.8,0-5.6,0-8.4c0-1.1-0.4-1.9-1.7-2c-1.2,0-1.3-1.1-1.3-1.9
			c0-0.8,0.7-1.3,1.5-1.3C61.3,103.4,62.7,103.4,64.1,103.4C64.1,103.4,64.1,103.4,64.1,103.4z"/>
		<path class="st1" d="M91.9,75.6c-5.8,0-9.4-3.4-9.3-8.9c0-6.4,3.3-9.8,9.4-9.7c5.7,0.1,10.1,3.5,9.8,7.8
			C101.1,73.8,99.1,75.3,91.9,75.6z M89.5,60.6c-0.3-0.5-0.5-1.1-1.1-1c-0.5,0-1,0.5-1,1.1c0,0.6,0.4,1,1,0.9
			C89,61.6,89.3,61.2,89.5,60.6z"/>
	</g>
</g>
</svg>
