<svg id="Capa_1" data-name="Capa 1" xmlns="http://www.w3.org/2000/svg" xmlns:xlink="http://www.w3.org/1999/xlink" viewBox="0 0 1135.23 1497.06"><defs><style>.cls-1{fill:none;}.cls-2{clip-path:url(#clip-path);}.cls-3{fill:#fff;}.cls-4{fill:#ce0e2d;}.cls-5{fill:#002856;}</style><clipPath id="clip-path" transform="translate(-34.86 -37.54)"><rect class="cls-1" x="34.86" y="37.54" width="1135.23" height="1497.06"/></clipPath></defs><g class="cls-2"><path class="cls-3" d="M1117.17,37.54H34.86v985.08c0,43.05,2.19,99.55,19.26,154.87,21.45,69.5,61.54,121.42,119.15,154.31,105.08,60,395.57,188,407.89,193.42l21.31,9.38,21.32-9.38c12.31-5.42,302.8-133.42,407.88-193.42,57.61-32.89,97.71-84.81,119.16-154.31,17.07-55.32,19.26-111.82,19.26-154.87V37.54Z" transform="translate(-34.86 -37.54)"/><path class="cls-4" d="M323.59,787.94l.19-.82,4.28,19.12,57.7,248.66h9.83l-6.36,6.37v85.39h11.63l-7,10.39v89.4a194.25,194.25,0,0,1,41.23-29.15V884.15c-30-33.25-48.44-72.9-54.92-118.37-10.43-73.2,8-136.71,54.92-189.24V413.46H323.59Z" transform="translate(-34.86 -37.54)"/><path class="cls-4" d="M546.71,507a240.87,240.87,0,0,1,25.14-5,217.72,217.72,0,0,1,86.34,5.1V413.46H546.71Z" transform="translate(-34.86 -37.54)"/><path class="cls-4" d="M601.88,960.35l-2.37,0a208.33,208.33,0,0,1-52.8-6.78v229c32.31-4.87,55.6-4.92,56-4.92h0c.44,0,23.43,0,55.41,4.82V953c-16.68,4.28-34.44,6.6-55.94,7.38Z" transform="translate(-34.86 -37.54)"/><path class="cls-4" d="M769.83,576.44a232.07,232.07,0,0,1,57.35,167,233.76,233.76,0,0,1-57.35,140V1217a194.63,194.63,0,0,1,41.86,29.49v-89.4l-7-10.38h11.63v-85.4l-6.38-6.37h9.84l57.69-248.66,3.85-17.13V413.47H769.83Z" transform="translate(-34.86 -37.54)"/><path class="cls-4" d="M101,1022.62c0,89.28,11.94,198.57,105.06,251.74,1.89,1.08,3.86,2.18,5.87,3.31V413.47H101Z" transform="translate(-34.86 -37.54)"/><path class="cls-4" d="M993,413.46v864.23l5.91-3.33c93.12-53.17,105.07-162.46,105.07-251.74V413.46Z" transform="translate(-34.86 -37.54)"/><path class="cls-5" d="M1117.17,46.36H43.68v976.26c0,42.43,2.14,98.08,18.87,152.27,20.77,67.29,59.49,117.51,115.1,149.26,104.69,59.77,394.76,187.58,407.06,193l17.76,7.83,17.77-7.83c12.29-5.41,302.37-133.22,407.06-193,55.6-31.75,94.33-82,115.1-149.26,16.72-54.19,18.87-109.84,18.87-152.27V46.36Zm13.23,976.26c0,96.43-13.46,214.8-118.41,274.72-103.31,59-392,186.16-404.19,191.55l-5.33,2.35-5.33-2.35c-12.23-5.39-300.88-132.57-404.19-191.55C88,1237.42,74.55,1119.05,74.55,1022.62V77.23H1130.4Z" transform="translate(-34.86 -37.54)"/><path class="cls-5" d="M475.05,901.39c38.82,30.61,83.44,44.75,126.67,44.27,25.9-.94,45.24-4.09,64.1-10.19,79-25.57,141.22-99.38,146.69-192.93a214.92,214.92,0,0,0-24.26-113.41c-40.76-78.5-125.84-125.1-214.32-112.5-40.32,5.75-76.3,21.42-106.56,48.42-59.48,53.06-83.9,119.82-72.67,198.65,8.05,56.42,35.63,102.43,80.35,137.69M611.9,580.57c-.07-3.42,1.09-5.39,4-7.07,11.91-6.78,24.52-11.3,38.24-12.25a38.08,38.08,0,0,1,18.71,3.24A177.7,177.7,0,0,1,732.31,608c2.66,2.94,4.74,6,5.45,10.06,1.32,7.43,3.16,14.76,4.36,22.2,1.29,8-.06,18.54-3.12,28.28l-58.51,15.9c-19.29-14-38.39-27.83-57.43-41.74-3.66-2.68-8.32-5-10.24-8.72-1.79-3.47-.61-8.5-.64-12.85-.1-13.51,0-27-.28-40.55M673.17,692.2c-8.44,26-16.74,51.6-25.11,77.39h-81.9Q553.7,731.22,541,692.2l66.07-48,66.06,48M555,769.42c.94,2.88,1.43,5.36-.59,8.33-12.13,17.76-24,35.7-36.26,54-15.26,0-29.58-2.94-43.57-7.36-8.48-2.67-16.67-6.29-25-9.41a9.91,9.91,0,0,1-5.64-5.54,186.08,186.08,0,0,1-17.28-63.2,8.74,8.74,0,0,1,.82-4.57c6.17-12,12.34-24,18.8-35.83,4.18-7.66,9.2-14.81,15.86-20.57a48.5,48.5,0,0,1,7.87-5.43,12.38,12.38,0,0,1,10.5-.86c15,4.84,30.11,9.38,45.23,13.89,3.33,1,5.31,2.54,6.43,6.1,7.46,23.53,15.18,47,22.84,70.45M562.83,784a6.62,6.62,0,0,1,6.15-3.4q38.16.16,76.31,0c2.94,0,4.57,1.22,6.05,3.54q16.08,25.18,32.36,50.24c1.47,2.27,2,4.29,1,7C677,863.66,665,883.59,650.64,902.17c-1.22,1.59-3.71,2.51-5.8,3.08a147.58,147.58,0,0,1-47.57,5.25c-9.57-.58-19.08-2.07-28.63-3-4.18-.43-7-2.53-9.6-5.79-15-18.93-25.47-40.09-32.24-63.73,12.15-18.18,24.14-36.05,36-54m-2.1,142.86a.69.69,0,0,0,0-.13c1.26-3.36,2.32-6.17,3.49-9.26,14.72,2.92,29.25,4.8,43.9,3.69,11.15-.84,22.39-1.92,33.28-4.33,6.9-1.53,11.73-.84,15.82,6,.08.14.18.27.26.42-32,9.46-63.71,10.59-96.8,3.66m198-76.44a28,28,0,0,1-4.58,7.56c-22.61,27.17-49.85,47.65-83.55,60.83l-.47-.39-10.92-9.13c1.59-2.46,2.7-4.42,4-6.21,13.1-17.53,23.87-36.34,31-57.08,1-2.82,2.41-4.11,5.33-4.29a163.35,163.35,0,0,0,56.95-14.27,9.35,9.35,0,0,1,2.09-.4c.51,2.78,1.1,5.46,1.48,8.16.75,5.47.49,10.44-1.41,15.22m-5.5-33.21c-17.59,8.45-36.25,12.51-55.53,14.33-2.4.23-3.79-.69-5-2.64-11.61-18.12-23.28-36.2-35-54.41l26-79.84,41.14-11.25c4.42-1.2,8.9-2.19,13.24-3.61,3.17-1,5.5-.45,8.15,1.63,11.69,9.21,19.51,21.17,25,34.72a175,175,0,0,1,6.44,19.53,27.66,27.66,0,0,1,.54,9.49,186.62,186.62,0,0,1-17.44,64.59,14.78,14.78,0,0,1-7.46,7.46m18,15.55c-.14-.32-.26-.62-.39-.93-3.76-9-1.47-16.53,2.25-24.51a172,172,0,0,0,15.22-59.41c.13-1.59.45-3.16.75-5.16l8.91-3.37.41-.16a202.13,202.13,0,0,1-27.15,93.54m-4.52-211.62a11.94,11.94,0,0,1,2.14,2.56A199.23,199.23,0,0,1,794.91,691c2.26,11.69,3.22,23.49,3.84,35.93l-.58.27L787.69,732c-6.83-24.31-16.87-46-37.82-61.21,5.17-18.27,3.58-36.26-1.72-55.49,6.17,1.56,11.09,2.51,15.77,4.12a8.33,8.33,0,0,1,2.75,1.71M756.83,606l-.76-.07a104.24,104.24,0,0,1-10.8-1.25,9,9,0,0,1-4.38-2.89,187.51,187.51,0,0,0-62.31-46.3c-2.67-1.23-4.45-2.78-5.19-5.8-.58-2.35-1.79-4.57-3.2-7.79-.12-.27-.24-.54-.36-.83,35.51,13.72,63.72,35.14,87,64.93M557.7,534.65l.06-.09c.69-.88,2.46-1,3.77-1.3a190.61,190.61,0,0,1,86.28.9,12.31,12.31,0,0,1,4.35,1.85,9.77,9.77,0,0,1,2.37,2.35c2.61,3.64,6,6.8,7.4,12.49a83.36,83.36,0,0,0-38.86,7.24,73.31,73.31,0,0,0-11,5.54c-4.05,2.71-7.47,2.85-11.92.63-10.62-5.3-21.64-9.78-33.29-12.37-5.51-1.22-11.12-2-17.22-3,1.33-5.79,4.76-10,8-14.2m-6.8,25.24c17.78,1.87,34.06,8.23,50.2,16.59.26,18.64.49,36.71.81,54.77A6.22,6.22,0,0,1,599,637c-21.68,15.69-43.3,31.46-65.12,47.34-15.36-4.69-30.51-9.85-46-13.82-8.62-2.21-12.4-7.67-14.7-15.26-3-10-3.34-20.29-3.7-30.56-.49-13.73-.35-13.7,9.21-23.31a179,179,0,0,1,59.48-39.78,25.41,25.41,0,0,1,12.7-1.7m-9.09-21.35c-.06.19-.13.38-.2.56-1.32,3.63-2.45,6.37-3.26,9.18-.85,3-3.44,3.42-5.68,4.36C517.4,559,503,566.89,490.17,577.35a252.77,252.77,0,0,0-22.73,20.78c-3.83,4-7.46,6.36-13,5.44a22.3,22.3,0,0,0-3.7,0h-1c24.74-30.85,54.78-52,92-65M407.43,705.34c4-30.63,13.87-59.14,30.47-85.28a12.51,12.51,0,0,1,3-3.46,8.15,8.15,0,0,1,4.45-1.59c4.27-.29,8.54-.55,13.48-.86.54,19-.63,37.53,8.6,54.71-17.51,9-27.05,24.81-35.64,41.39-4.08,7.88-8.08,15.8-12.4,24.27-5.95-4.93-10-10.51-12.14-16.95-.09-.27-.15-.55-.22-.83-.85-3.51-.12-7.65.36-11.4M434,823c-.84,1.53-1.2,3.33-2.25,6.41v0l-.37-.71c-.86-1.56-1.7-3.12-2.5-4.68l-.35-.69c-.65-1.27-1.27-2.54-1.89-3.81a203.24,203.24,0,0,1-20.47-82.39l.84.69a67.84,67.84,0,0,1,7.7,6.68c1.22,1.35,1.63,3.69,1.82,5.65a185.54,185.54,0,0,0,16.79,61.24c1.86,4,2.9,7.51.69,11.58m8,22.67a10.79,10.79,0,0,1-.73-7.3c1.05-4.39,1.81-8.85,2.89-14.22,23.86,10.56,47.26,17.35,72.73,18.38,8,25.55,19.63,49.21,37.33,69.76-.54,2.06-.92,4.06-1.61,6s-1.67,3.63-2.65,5.68v0c-.8-.22-1.59-.46-2.38-.69l-.2-.06a181.87,181.87,0,0,1-40-17,199.67,199.67,0,0,1-63.35-57,19.77,19.77,0,0,1-2.07-3.46" transform="translate(-34.86 -37.54)"/><path class="cls-5" d="M947.21,1061.27l2.12-2.12,4.25-4.25h-9.84L886,806.24l-2.14-9.56-2.14-9.56-.23,1-.22,1-3.84,17.13-57.7,248.66h-9.84l6.37,6.37v85.4H804.68l7,10.38v89.4A194.63,194.63,0,0,0,769.83,1217c-19-10.14-39.32-17.64-59-23.22-4.28-1.21-8.53-2.34-12.72-3.38-14.12-3.48-27.67-6-39.91-7.82-32-4.78-55-4.83-55.41-4.83h0c-.44,0-23.73,0-56,4.92-6.13.93-12.6,2-19.29,3.33-2.23.44-4.49.89-6.77,1.38a351.39,351.39,0,0,0-64.37,19.82c-7.19,3-14.29,6.42-21.21,10.14a194.25,194.25,0,0,0-41.23,29.15v-89.4l7-10.38H389.23v-85.4l6.36-6.37h-9.83l-57.7-248.66-4.29-19.12-.18.82-4.1,18.3-57.7,248.66H252l6.37,6.37v85.4H246.7l3.5,5.19,3.51,5.19v142.77c114.78,58.65,313.72,147,348.76,162.5,35.11-15.53,234.67-104.15,349.35-162.8V1157.05l7-10.38H947.21Z" transform="translate(-34.86 -37.54)"/><path class="cls-5" d="M638.88,155.42q1.95-1.86,2-5.76t-2-5.76a7.64,7.64,0,0,0-5.49-1.86h-9.64v15.24h9.64a7.64,7.64,0,0,0,5.49-1.86" transform="translate(-34.86 -37.54)"/><path class="cls-5" d="M780.93,155.42q1.92-1.86,1.92-5.76t-1.92-5.76a7.57,7.57,0,0,0-5.47-1.86h-9.64v15.24h9.64a7.57,7.57,0,0,0,5.47-1.86" transform="translate(-34.86 -37.54)"/><path class="cls-5" d="M695.1,164.54a9.27,9.27,0,0,0,3.48,2.46,11.69,11.69,0,0,0,8.55,0,9.27,9.27,0,0,0,3.48-2.46,12.25,12.25,0,0,0,2.35-4.19,20.79,20.79,0,0,0,0-12,12.35,12.35,0,0,0-2.35-4.19,9.39,9.39,0,0,0-3.48-2.46,11.69,11.69,0,0,0-8.55,0,9.39,9.39,0,0,0-3.48,2.46,12.35,12.35,0,0,0-2.35,4.19,21,21,0,0,0,0,12,12.25,12.25,0,0,0,2.35,4.19" transform="translate(-34.86 -37.54)"/><path class="cls-5" d="M1015.55,164.54A9.16,9.16,0,0,0,1019,167a11.71,11.71,0,0,0,8.56,0,9.16,9.16,0,0,0,3.47-2.46,12.1,12.1,0,0,0,2.36-4.19,21,21,0,0,0,0-12,12.2,12.2,0,0,0-2.36-4.19,9.27,9.27,0,0,0-3.47-2.46,11.71,11.71,0,0,0-8.56,0,9.27,9.27,0,0,0-3.47,2.46,12.35,12.35,0,0,0-2.35,4.19,20.79,20.79,0,0,0,0,12,12.25,12.25,0,0,0,2.35,4.19" transform="translate(-34.86 -37.54)"/><path class="cls-5" d="M385.32,165.34a4.69,4.69,0,0,0,1.79-4,5,5,0,0,0-1.79-4.23,8.29,8.29,0,0,0-5.15-1.37H370.08v11h10.09a8.43,8.43,0,0,0,5.15-1.35" transform="translate(-34.86 -37.54)"/><polygon class="cls-5" points="598.11 202.97 570.87 270.14 627.15 270.14 599.92 202.97 598.11 202.97"/><path class="cls-5" d="M501.34,238.69h-39v61.73h39q14.34,0,22.24-7.54t7.9-23.32q0-15.81-7.9-23.33t-22.24-7.54" transform="translate(-34.86 -37.54)"/><path class="cls-5" d="M385.32,147a4.34,4.34,0,0,0-1.63-3.65,7.84,7.84,0,0,0-4.87-1.28h-8.74v10.31h8.74c4.34,0,6.5-1.79,6.5-5.38" transform="translate(-34.86 -37.54)"/><polygon class="cls-5" points="302.19 202.97 274.96 270.14 331.24 270.14 304.01 202.97 302.19 202.97"/><path class="cls-5" d="M1103.94,103.69H101V381.12H1103.94Zm-97.29,43.55a14.14,14.14,0,0,1,3.63-5.2,15.42,15.42,0,0,1,5.67-3.18,25.48,25.48,0,0,1,14.68,0,15.41,15.41,0,0,1,5.65,3.18,14.31,14.31,0,0,1,3.65,5.2,20.18,20.18,0,0,1,0,14.25,14.31,14.31,0,0,1-3.65,5.2,15.7,15.7,0,0,1-5.65,3.18,25.48,25.48,0,0,1-14.68,0,15.71,15.71,0,0,1-5.67-3.18,14.14,14.14,0,0,1-3.63-5.2,20.47,20.47,0,0,1,0-14.25m-65.41-8.56,11.25,27.56h.45l11.25-27.56h6.68l-12.78,31.37H947.34l-12.78-31.37Zm-181.91,0h16.13a22.73,22.73,0,0,1,6,.74,12.9,12.9,0,0,1,4.5,2.15,9.52,9.52,0,0,1,2.83,3.45,10.64,10.64,0,0,1,1,4.64,10,10,0,0,1-1.79,6.05,11.16,11.16,0,0,1-5.16,3.76l7.4,10.58h-7.4l-6.58-9.41H765.82v9.41h-6.49Zm-73.13,8.56a14.16,14.16,0,0,1,3.64-5.2,15.34,15.34,0,0,1,5.67-3.18,25.45,25.45,0,0,1,14.67,0,15.41,15.41,0,0,1,5.65,3.18,14.33,14.33,0,0,1,3.66,5.2,20.32,20.32,0,0,1,0,14.25,14.33,14.33,0,0,1-3.66,5.2,15.7,15.7,0,0,1-5.65,3.18,25.45,25.45,0,0,1-14.67,0,15.62,15.62,0,0,1-5.67-3.18,14.16,14.16,0,0,1-3.64-5.2,20.62,20.62,0,0,1,0-14.25m-69-8.56h16.14a22.73,22.73,0,0,1,6,.74,13.07,13.07,0,0,1,4.5,2.15,9.62,9.62,0,0,1,2.83,3.45,11.47,11.47,0,0,1,0,9.28,9.71,9.71,0,0,1-2.83,3.45,13.07,13.07,0,0,1-4.5,2.15,22.73,22.73,0,0,1-6,.74h-9.64v9.41h-6.5Zm-65,0h27.34V142H558.77v10.31h16.36v3.36H558.77v11h20.84v3.36H552.27Zm-70.81,0h14.79a25.08,25.08,0,0,1,7.33,1,16,16,0,0,1,5.64,3,13.21,13.21,0,0,1,3.65,4.91,18.36,18.36,0,0,1,0,13.57,13.21,13.21,0,0,1-3.65,4.91,15.84,15.84,0,0,1-5.64,3,25.08,25.08,0,0,1-7.33,1H481.46Zm-117.87,0h15.23a26.28,26.28,0,0,1,6,.6A13,13,0,0,1,389,141a7.23,7.23,0,0,1,2.47,2.62,7.12,7.12,0,0,1,.8,3.36,6.59,6.59,0,0,1-1.34,4.12,7.89,7.89,0,0,1-4,2.6,9.88,9.88,0,0,1,5.27,2.63,6.82,6.82,0,0,1,1.9,5,7.41,7.41,0,0,1-3.34,6.39q-3.33,2.36-10.55,2.35H363.59Zm-71.71,0h6.5v18.6a14.65,14.65,0,0,0,.69,4.77,8.54,8.54,0,0,0,1.95,3.27,7.65,7.65,0,0,0,3,1.88,13.19,13.19,0,0,0,7.93,0,7.54,7.54,0,0,0,3-1.88,8.54,8.54,0,0,0,1.95-3.27,14.37,14.37,0,0,0,.7-4.77v-18.6h6.5v18.6q0,6.9-4.22,10.28T308,171q-7.75,0-11.94-3.39t-4.19-10.28Zm-60.73,0h6.5v28h19.27v3.36H231.15ZM163,147.24a14,14,0,0,1,3.63-5.2,15.42,15.42,0,0,1,5.67-3.18,23.63,23.63,0,0,1,7.35-1.08,21.52,21.52,0,0,1,7.71,1.39,18.78,18.78,0,0,1,6.18,3.77l-2.24,2.69a16.14,16.14,0,0,0-5.35-3.43,16.34,16.34,0,0,0-5.85-1.06,12.91,12.91,0,0,0-4.53.79,9.45,9.45,0,0,0-3.63,2.4,11.35,11.35,0,0,0-2.4,4.1,20.68,20.68,0,0,0,0,11.87,10.79,10.79,0,0,0,2.47,4.1,9.85,9.85,0,0,0,3.76,2.4,14.06,14.06,0,0,0,4.78.78,16.55,16.55,0,0,0,5.85-1.05,16.24,16.24,0,0,0,5.35-3.43l2.24,2.69a18.78,18.78,0,0,1-6.18,3.77,21.56,21.56,0,0,1-7.71,1.39,25,25,0,0,1-7.6-1.08,16.12,16.12,0,0,1-5.78-3.18,14.07,14.07,0,0,1-3.7-5.2,18.2,18.2,0,0,1-1.3-7.12,18.59,18.59,0,0,1,1.28-7.13m53.36,204.92H190V238.69H141V225.07H265.34v13.62h-49Zm168.11,0-12-30.86h-69l-12,30.86H265.34l51.74-127.09h41.75l51.74,127.09Zm171-63.82a38.58,38.58,0,0,1-11.43,14A52.94,52.94,0,0,1,525.76,311a91.74,91.74,0,0,1-24.42,3h-39v38.13H436V225.07h65.35a91.32,91.32,0,0,1,24.42,3A52.76,52.76,0,0,1,544,236.79a38.64,38.64,0,0,1,11.43,14,46.13,46.13,0,0,1,0,37.58m124.9,63.82-12-30.86h-69l-12,30.86H561.25L613,225.07h41.76l51.74,127.09ZM827.21,238.69h-49V352.16H751.88V238.69h-49V225.07H827.21Zm15.25-68.64H836V142h-12.1v-3.36h30.7V142H842.46ZM879,352.16H852.63V225.07H879Zm-5.08-138H856.62L867.52,187h25.59Zm23.94-44.13h-6.49V138.68h6.49Zm157.42,147.43a57.91,57.91,0,0,1-14.8,21.06,63.27,63.27,0,0,1-22.87,12.89,103.54,103.54,0,0,1-59.46,0,63.08,63.08,0,0,1-23-12.89,57,57,0,0,1-14.71-21.06q-5.17-12.53-5.17-28.86t5.17-28.87a57,57,0,0,1,14.71-21.06,63.23,63.23,0,0,1,23-12.89,103.77,103.77,0,0,1,59.46,0,63.41,63.41,0,0,1,22.87,12.89,57.91,57.91,0,0,1,14.8,21.06q5.26,12.53,5.26,28.87t-5.26,28.86" transform="translate(-34.86 -37.54)"/><path class="cls-5" d="M500.53,166A8.84,8.84,0,0,0,504,163.8a10.67,10.67,0,0,0,2.35-3.83,18.29,18.29,0,0,0,0-11.21,10.67,10.67,0,0,0-2.35-3.83,9,9,0,0,0-3.47-2.2,13,13,0,0,0-4.28-.69H488v24.65h8.29a12.77,12.77,0,0,0,4.28-.7" transform="translate(-34.86 -37.54)"/><path class="cls-5" d="M1019.28,247.41a37.46,37.46,0,0,0-14.07-10,47.58,47.58,0,0,0-34.67,0,37.46,37.46,0,0,0-14.07,10,49.46,49.46,0,0,0-9.54,17q-3.52,10.26-3.53,24.23t3.53,24.24a49.6,49.6,0,0,0,9.54,17,37.43,37.43,0,0,0,14.07,10,47.58,47.58,0,0,0,34.67,0,37.43,37.43,0,0,0,14.07-10,49.1,49.1,0,0,0,9.53-17q3.56-10.26,3.54-24.24t-3.54-24.23a49,49,0,0,0-9.53-17" transform="translate(-34.86 -37.54)"/></g><rect class="cls-1" width="1135.23" height="1497.06"/><path class="cls-1" d="M34.86,37.54V683.3c158.63,48,355,76.35,567.61,76.35s409-28.38,567.62-76.35V37.54Z" transform="translate(-34.86 -37.54)"/></svg>